<?xml version="1.0" encoding="UTF-8"?>
<svg xmlns="http://www.w3.org/2000/svg" xmlns:xlink="http://www.w3.org/1999/xlink" width="40pt" height="40pt" viewBox="0 0 40 40" version="1.1">
<g id="surface1">
<path style=" stroke:none;fill-rule:nonzero;fill:rgb(11.372549%,11.372549%,10.588235%);fill-opacity:1;" d="M 29.09375 18.824219 L 11.417969 18.824219 C 10.726562 18.824219 10.167969 19.382812 10.167969 20.074219 C 10.167969 20.765625 10.726562 21.324219 11.417969 21.324219 L 29.09375 21.324219 C 29.785156 21.324219 30.34375 20.765625 30.34375 20.074219 C 30.34375 19.382812 29.785156 18.824219 29.09375 18.824219 Z M 29.09375 18.824219 "/>
<path style=" stroke:none;fill-rule:nonzero;fill:rgb(11.372549%,11.372549%,10.588235%);fill-opacity:1;" d="M 20 0 C 8.972656 0 0 8.972656 0 20 C 0 31.027344 8.972656 40 20 40 C 31.027344 40 40 31.027344 40 20 C 40 8.972656 31.027344 0 20 0 Z M 20 37.5 C 10.351562 37.5 2.5 29.648438 2.5 20 C 2.5 10.351562 10.351562 2.5 20 2.5 C 29.648438 2.5 37.5 10.351562 37.5 20 C 37.5 29.648438 29.648438 37.5 20 37.5 Z M 20 37.5 "/>
</g>
</svg>
