<?xml version="1.0" encoding="UTF-8"?>
<svg xmlns="http://www.w3.org/2000/svg" xmlns:xlink="http://www.w3.org/1999/xlink" width="40pt" height="40pt" viewBox="0 0 40 40" version="1.1">
<g id="surface1">
<path style=" stroke:none;fill-rule:nonzero;fill:rgb(0%,0%,0%);fill-opacity:1;" d="M 34.140625 5.859375 C 30.363281 2.082031 25.34375 0 20 0 C 14.65625 0 9.636719 2.082031 5.859375 5.859375 C 2.082031 9.636719 0 14.65625 0 20 C 0 25.34375 2.082031 30.363281 5.859375 34.140625 C 9.636719 37.917969 14.65625 40 20 40 C 25.34375 40 30.363281 37.917969 34.140625 34.140625 C 37.917969 30.363281 40 25.34375 40 20 C 40 14.65625 37.917969 9.636719 34.140625 5.859375 Z M 20 36.875 C 10.695312 36.875 3.125 29.304688 3.125 20 C 3.125 10.695312 10.695312 3.125 20 3.125 C 29.304688 3.125 36.875 10.695312 36.875 20 C 36.875 29.304688 29.304688 36.875 20 36.875 Z M 21.5625 18.4375 L 28.59375 18.4375 L 28.59375 21.5625 L 21.5625 21.5625 L 21.5625 28.59375 L 18.4375 28.59375 L 18.4375 21.5625 L 11.40625 21.5625 L 11.40625 18.4375 L 18.4375 18.4375 L 18.4375 11.40625 L 21.5625 11.40625 Z M 21.5625 18.4375 "/>
</g>
</svg>
